<svg width="59" height="59" viewBox="0 0 59 59" fill="none" xmlns="http://www.w3.org/2000/svg">
<path d="M27.057 26.119C27.7371 28.7636 23.5145 29.9638 22.2965 32.4661L19.1229 33.5995L16.176 34.6196C15.9336 33.5995 14.8052 33.5995 13.1158 32.5794C12.5682 33.7884 13.4785 33.7701 14.0226 35.2996C12.8308 35.775 11.3489 35.2745 9.93657 36.093C10.3905 37.3951 11.3157 36.5292 12.4358 37.113C11.3107 37.6624 9.4389 38.3183 10.2823 38.5864C11.6058 39.3444 13.3007 38.2005 13.8039 38.1193C13.3383 39.114 11.656 40.0383 11.5291 40.5133C13.5389 39.988 14.3835 40.3788 15.0427 38.9265C16.6969 38.87 17.6402 38.5968 19.0096 36.5463L24.4501 34.1661C26.8357 34.0728 28.8218 31.5353 28.1903 30.5392L27.0569 26.1189L27.057 26.119Z" fill="#1A1A1A"/>
<path d="M26.2873 50.3482L24.1338 46.2679L25.6072 42.4142L26.9673 37.9939L27.534 35.5005L37.1681 34.7071L39.7749 38.5607L37.5081 43.8878L37.7348 49.3282L36.6014 53.5218L34.5612 52.8418L33.7679 47.4013L33.5412 44.1144L34.3345 41.9609L33.6545 41.5075L32.181 41.2809L29.5742 42.3009L27.7607 45.8145L27.5341 51.8214L26.2873 50.348L26.2873 50.3482Z" fill="#1A1A1A"/>
<path d="M27.0109 24.39C28.4858 23.7824 29.9783 23.1172 30.3258 26.1808L26.5438 34.3224C25.3127 32.225 24.4816 30.9533 22.8891 30.7359L27.0109 24.3901V24.39Z" fill="#F2F2F2" stroke="#333333" stroke-linejoin="round"/>
<path d="M29.689 23.3787L38.0181 22.7478C42.9414 29.9024 41.0469 35.6199 39.2801 40.2892C35.9473 39.3542 34.3425 40.3939 33.3529 42.1366L31.461 42.1253C29.9028 39.7807 28.3446 39.1544 26.7866 39.1534C26.7591 39.2176 25.4048 25.9296 29.6892 23.3788L29.689 23.3787Z" fill="#F2F2F2" stroke="#333333"/>
<path d="M26.0291 34.6104C30.367 37.6174 37.8563 35.5634 41.0465 34.6104L40.9203 37.513C35.3319 39.2381 29.0327 38.8534 26.0288 37.2606L26.0288 34.6104L26.0291 34.6104Z" fill="#F2F2F2" stroke="#333333" stroke-linejoin="round"/>
<path d="M34.1094 41.8038L33.3522 45.4636C34.9615 45.2207 36.5649 44.9958 37.5167 46.7255L38.5263 40.9205C37.3129 40.2035 35.9791 40.2235 34.1094 41.8039V41.8038Z" fill="#F2F2F2" stroke="#333333" stroke-linejoin="round"/>
<path d="M25.7987 40.5362L24.3638 44.4918C25.9901 44.5574 27.8594 44.5132 28.4674 46.3915L30.4292 41.6388C29.3731 40.7056 27.9333 39.3375 25.7986 40.5362L25.7987 40.5362Z" fill="#F2F2F2" stroke="#333333" stroke-linejoin="round"/>
<path d="M33.7314 46.6008C33.7314 46.6008 34.9934 44.9602 36.6339 46.2222C37.6392 46.9955 38.0221 50.0082 38.0221 50.0082C36.6933 50.1071 35.6109 49.2206 33.9838 50.5129L33.7314 46.6008L33.7314 46.6008Z" fill="#F2F2F2" stroke="#333333" stroke-linejoin="round"/>
<path d="M24.5495 45.3839C24.5495 45.3839 27.7045 44.7529 28.3354 46.8983C28.6933 48.115 29.2188 49.5484 29.2188 49.5484C27.89 49.6474 26.8076 48.7609 25.1805 50.0532L24.5495 45.3839Z" fill="#F2F2F2" stroke="#333333" stroke-linejoin="round"/>
<path d="M28.3016 50.0071C27.4765 49.6896 26.6762 49.2734 25.5252 50.2595C23.2928 51.4227 20.7817 51.3826 18.8365 53.793L19.0889 55.055C23.6437 56.6509 26.3616 55.3386 28.9323 53.793L28.3013 50.007L28.3016 50.0071Z" fill="#F2F2F2" stroke="#333333" stroke-linejoin="round"/>
<path d="M37.3267 50.3851C36.5017 50.0676 35.7013 49.6514 34.5504 50.6375C32.3179 51.8007 29.8069 51.7606 27.8617 54.171L28.1141 55.433C32.6688 57.0289 35.3868 55.7166 37.9574 54.171L37.3264 50.385L37.3267 50.3851Z" fill="#F2F2F2" stroke="#333333" stroke-linejoin="round"/>
<path d="M32.7634 33.0722C32.2847 33.0269 19.263 37.9107 19.263 37.9107C18.8051 39.027 18.4588 40.1238 20.3546 40.8318L34.1777 35.1384C34.3957 34.2285 34.0915 33.4862 32.7635 33.0722L32.7634 33.0722Z" fill="black"/>
<path d="M28.9238 37.8748L30.7672 42.5233L32.9311 41.3211L31.0076 36.6726L33.8127 35.6307L33.0113 34.5888L22.6725 39.157L23.0732 40.3592L28.9239 37.8747L28.9238 37.8748Z" fill="#333333" stroke="#1A1A1A"/>
<path d="M21.6779 32.5417C24.5269 31.3743 24.5755 33.0573 25.4649 34.7526L17.9871 38.2646C17.9987 36.3951 17.8269 34.7369 16.5262 34.3797L21.6781 32.5417L21.6779 32.5417Z" fill="#F2F2F2" stroke="#333333" stroke-linejoin="round"/>
<path d="M30.3666 32.5855L18.9058 36.4325L20.1881 39.2375C20.1881 39.2375 21.3102 39.478 20.9094 38.917C20.5087 38.3559 19.9477 36.753 19.9477 36.753L30.4464 33.1465L30.3663 32.5855L30.3666 32.5855Z" fill="black"/>
<path d="M28.1218 32.8257L30.3658 36.352L32.3694 35.4704L30.5261 31.7036L28.1217 32.8257H28.1218Z" fill="#333333" stroke="#1A1A1A" stroke-linejoin="round"/>
<path d="M38.1887 25.4152C38.8688 28.0597 39.8598 30.3933 40.2288 33.3493L36.3752 35.5028L33.8817 36.9762C33.6393 35.9562 33.6443 34.9361 31.9549 33.916C31.4073 35.125 32.1435 36.3339 33.0883 37.5429C31.3356 37.0567 29.4003 35.9311 28.2148 37.4296C28.6119 39.0155 30.007 38.6055 31.275 38.4496C30.15 38.999 28.2781 39.655 29.1215 39.9231C30.445 40.681 31.0981 40.0981 31.8417 39.6964C30.8151 40.7712 30.4952 41.3749 30.3683 41.8499C32.2179 41.8856 32.996 40.582 33.6552 39.1297C35.3094 39.0732 37.0461 39.5935 38.4157 37.5429L43.4026 33.236C44.7682 31.6692 43.5807 30.8319 42.9493 29.8357L38.1887 25.4154L38.1887 25.4152Z" fill="#1A1A1A"/>
<path d="M37.1654 24.3951C37.6601 22.8787 38.1224 21.3114 40.679 23.035L44.4193 31.1955C42.0246 30.7712 40.5177 30.5783 39.319 31.6488L37.1655 24.3951L37.1654 24.3951Z" fill="#F2F2F2" stroke="#333333" stroke-linejoin="round"/>
<path d="M39.6591 32.6689C42.1288 30.8303 43.1071 32.2428 44.1927 32.8956L37.5054 39.1293C37.0522 37.3155 36.4739 35.752 35.1252 35.7291L39.6589 32.6689L39.6591 32.6689Z" fill="#F2F2F2" stroke="#333333" stroke-linejoin="round"/>
<path d="M32.4085 36.5228L35.242 36.2961C36.2775 36.695 36.8461 37.3739 36.3754 38.6763L33.4286 40.2631C31.4781 38.6585 31.6606 37.5278 32.4085 36.5228V36.5228Z" fill="#F2F2F2" stroke="#333333" stroke-linejoin="round"/>
<path d="M25.7341 14.0526C25.9438 12.9526 26.1696 6.89976 27.0965 5.52893C29.4864 2.54736 35.5409 0.958 39.7681 4.73898C42.5535 8.95517 42.5535 12.7081 42.9892 16.5334C43.2948 23.6784 37.7714 23.2258 34.7716 26.0624C33.8857 26.1122 33.0691 27.0248 32.051 25.4277C31.0977 23.5959 31.4761 21.7909 25.8721 24.146C25.0338 24.8514 24.2384 24.8616 23.5316 23.44C22.698 19.9961 24.5451 17.0905 25.7343 14.053L25.7341 14.0526Z" fill="#F2F2F2" stroke="#333333" stroke-linejoin="round"/>
<path d="M39.6452 8.98506C40.2136 11.5485 38.9395 13.0865 38.2761 14.9643C35.4432 13.0533 33.3772 11.3339 30.9061 11.2947C29.3484 11.5153 29.1526 11.1385 27.0751 12.6475C26.2132 11.7676 26.2657 10.6589 26.6587 9.46485C31.2337 11.2253 36.1236 9.87224 39.6452 8.98502L39.6452 8.98506Z" fill="black"/>
<path d="M26.527 7.86681C31.3622 9.99127 37.795 8.81763 41.3641 7.39923L41.5081 8.19167C36.2474 9.5372 30.7199 10.9614 26.1054 8.62428L26.527 7.86682L26.527 7.86681Z" fill="#800000"/>
<path d="M26.9141 23.6751C28.2424 22.2258 28.4608 19.8316 30.9074 19.3344C31.7294 20.9378 31.5937 22.3052 31.8257 23.7632C30.8214 23.014 28.6847 23.2912 26.914 23.6751L26.9141 23.6751Z" fill="black"/>
<path d="M25.6001 23.3382C25.6265 23.6666 25.5466 23.9899 25.3779 24.2372C25.2093 24.4844 24.9658 24.6353 24.7009 24.6566C24.4361 24.6778 24.1716 24.5678 23.9657 24.3506C23.7598 24.1334 23.6293 23.8269 23.6029 23.4985C23.5766 23.1701 23.6565 22.8467 23.8251 22.5995C23.9938 22.3522 24.2373 22.2014 24.5021 22.1801C24.767 22.1588 25.0314 22.2689 25.2373 22.4861C25.4433 22.7033 25.5738 23.0098 25.6001 23.3382Z" fill="black"/>
<path d="M34.3353 24.9687C34.3617 25.2971 34.2607 25.6222 34.0547 25.8725C33.8486 26.1227 33.5543 26.2777 33.2364 26.3032C32.9186 26.3287 32.6034 26.2227 32.36 26.0086C32.1166 25.7944 31.9651 25.4896 31.9387 25.1612C31.9124 24.8328 32.0133 24.5077 32.2194 24.2574C32.4255 24.0072 32.7198 23.8522 33.0376 23.8267C33.3554 23.8012 33.6707 23.9072 33.9141 24.1214C34.1574 24.3355 34.309 24.6404 34.3353 24.9687Z" fill="black"/>
<path d="M27.0109 17.8784C28.7274 16.1037 28.671 16.4875 31.1546 14.41C33.1336 15.886 33.6815 17.4768 34.9011 19.0138C32.7509 16.5346 30.3326 15.7397 27.0108 17.8784H27.0109Z" fill="#999999"/>
<path d="M20.1891 38.4357L16.9833 39.6379L17.6245 41.0003L20.4295 39.8783L20.1891 38.4357H20.1891Z" fill="black"/>
<path d="M27.1492 29.9646L30.5395 30.8195L35.6642 31.1391L31.4068 29.8912L31.627 26.2945L30.6727 29.5977L27.1494 29.9647L27.1492 29.9646Z" fill="#B3B3B3"/>
<path d="M35.4461 12.0544C36.405 12.3513 37.2184 12.8519 39.1163 11.8342L38.0886 13.9629L35.4461 12.0545V12.0544Z" fill="white"/>
</svg>
